<svg xmlns="http://www.w3.org/2000/svg" width="960" height="538.784" viewBox="0 0 960 538.784"><path d="M-2020,527.556V370.416a11.223,11.223,0,0,1,11.224-11.228,11.226,11.226,0,0,1,11.228,11.228v157.14a11.229,11.229,0,0,1-11.228,11.228A11.226,11.226,0,0,1-2020,527.556Zm91.994-11.705L-1983.5,366.829a10.285,10.285,0,0,1,6.049-13.232,10.288,10.288,0,0,1,13.236,6.049l55.493,149.022a10.3,10.3,0,0,1-6.058,13.236,10.257,10.257,0,0,1-3.582.647A10.3,10.3,0,0,1-1928.007,515.851Zm79.649-41.576L-1952.07,351.282a9.357,9.357,0,0,1,1.115-13.184,9.362,9.362,0,0,1,13.185,1.125l103.712,122.993a9.35,9.35,0,0,1-1.12,13.18,9.308,9.308,0,0,1-6.021,2.2A9.342,9.342,0,0,1-1848.358,474.275Zm60.62-65.842-140.435-82.268a8.412,8.412,0,0,1-3.005-11.516,8.424,8.424,0,0,1,11.521-3.01l140.43,82.268a8.416,8.416,0,0,1,3.01,11.516,8.434,8.434,0,0,1-7.278,4.168A8.342,8.342,0,0,1-1787.738,408.433Zm35.314-84.7-161.979-29.4a7.493,7.493,0,0,1-6.03-8.7,7.492,7.492,0,0,1,8.7-6.03l161.984,29.4a7.494,7.494,0,0,1,6.034,8.7,7.5,7.5,0,0,1-7.362,6.148A7.714,7.714,0,0,1-1752.423,323.736Zm458.922-23.883-41.052-60.582h15.49l34.422,51.977,34.511-51.977h14.89l-41.052,60.582Zm92.111-.34V239.271h13.34v60.242Zm54.732,0V239.266h44.062c20.571,0,30.121,4.82,34.851,9.56,5.425,5.416,7.745,12.3,7.745,20.566s-2.32,15.141-7.745,20.566c-4.73,4.73-14.28,9.55-34.851,9.55Zm13.336-10.841h30.466c14.115,0,21.431-2.585,24.781-5.94,3.1-3.1,4.649-7.315,4.649-13.336s-1.55-10.245-4.649-13.34c-3.351-3.355-10.666-5.935-24.781-5.935h-30.466Zm-227.651,10.841-9.636-14.2h-52.577l-9.641,14.2h-14.714l41.906-60.582h18.075l41.912,60.582Zm-54.983-24.866h38.117l-19.1-28.146Zm-142.878,24.866V239.266h44.057c20.566,0,30.116,4.82,34.856,9.56,5.416,5.416,7.741,12.3,7.741,20.566s-2.325,15.141-7.741,20.566c-4.74,4.73-14.29,9.55-34.856,9.55Zm13.336-10.841h30.465c14.111,0,21.426-2.585,24.781-5.94,3.1-3.1,4.646-7.315,4.646-13.336s-1.545-10.245-4.646-13.34c-3.355-3.355-10.671-5.935-24.781-5.935H-1545.5Zm-374.929-35.522a6.549,6.549,0,0,1,5.268-7.613l163.827-29.733a6.546,6.546,0,0,1,7.608,5.279,6.543,6.543,0,0,1-5.273,7.608l-163.818,29.733a6.6,6.6,0,0,1-1.172.1A6.55,6.55,0,0,1-1920.427,253.145Zm-10.75-29.01a5.612,5.612,0,0,1,2-7.679l145.28-85.1a5.61,5.61,0,0,1,7.684,2,5.611,5.611,0,0,1-2.013,7.679l-145.275,85.1a5.6,5.6,0,0,1-2.83.77A5.6,5.6,0,0,1-1931.178,224.135Zm-19.778-23.453a4.681,4.681,0,0,1-.562-6.592l109.747-130.143a4.676,4.676,0,0,1,6.593-.553,4.668,4.668,0,0,1,.562,6.583l-109.746,130.148a4.664,4.664,0,0,1-3.573,1.659A4.664,4.664,0,0,1-1950.956,200.682Zm-26.491-15.5a3.752,3.752,0,0,1-2.2-4.815l60.067-161.289a3.741,3.741,0,0,1,4.806-2.2,3.743,3.743,0,0,1,2.2,4.811l-60.058,161.294a3.746,3.746,0,0,1-3.511,2.438A3.73,3.73,0,0,1-1977.447,185.187Zm-34.133-8.4V2.8a2.8,2.8,0,0,1,2.8-2.8,2.8,2.8,0,0,1,2.8,2.8V176.785a2.8,2.8,0,0,1-2.8,2.807A2.8,2.8,0,0,1-2011.58,176.785Z" transform="translate(2020.001)"/></svg>